<?xml version="1.0" encoding="utf-8" standalone="no"?>
<!DOCTYPE svg PUBLIC "-//W3C//DTD SVG 1.1//EN"
  "http://www.w3.org/Graphics/SVG/1.1/DTD/svg11.dtd">
<svg height="288pt" version="1.1" viewBox="0 0 432 288" width="432pt" xmlns="http://www.w3.org/2000/svg" xmlns:xlink="http://www.w3.org/1999/xlink">
 <metadata>
  <rdf:RDF xmlns:cc="http://creativecommons.org/ns#" xmlns:dc="http://purl.org/dc/elements/1.1/" xmlns:rdf="http://www.w3.org/1999/02/22-rdf-syntax-ns#">
   <cc:Work>
    <dc:type rdf:resource="http://purl.org/dc/dcmitype/StillImage"/>
    <dc:date>2022-03-03T06:55:27.662358</dc:date>
    <dc:format>image/svg+xml</dc:format>
    <dc:creator>
     <cc:Agent>
      <dc:title>Matplotlib v3.4.3, https://matplotlib.org/</dc:title>
     </cc:Agent>
    </dc:creator>
   </cc:Work>
  </rdf:RDF>
 </metadata>
 <defs>
  <style type="text/css">*{stroke-linecap:butt;stroke-linejoin:round;}</style>
 </defs>
 <g id="figure_1">
  <g id="patch_1">
   <path d="M 0 288 
L 432 288 
L 432 0 
L 0 0 
z
" style="fill:none;"/>
  </g>
  <g id="axes_1">
   <g id="patch_2">
    <path d="M 54 252 
L 388.8 252 
L 388.8 34.56 
L 54 34.56 
z
" style="fill:#ffffff;"/>
   </g>
   <g id="matplotlib.axis_1">
    <g id="xtick_1">
     <g id="line2d_1">
      <defs>
       <path d="M 0 0 
L 0 3.5 
" id="m808b5134b4" style="stroke:#000000;stroke-width:0.8;"/>
      </defs>
      <g>
       <use style="stroke:#000000;stroke-width:0.8;" x="69.218182" xlink:href="#m808b5134b4" y="252"/>
      </g>
     </g>
     <g id="text_1">
      <!-- 0 -->
      <g transform="translate(66.036932 266.598437)scale(0.1 -0.1)">
       <defs>
        <path d="M 2034 4250 
Q 1547 4250 1301 3770 
Q 1056 3291 1056 2328 
Q 1056 1369 1301 889 
Q 1547 409 2034 409 
Q 2525 409 2770 889 
Q 3016 1369 3016 2328 
Q 3016 3291 2770 3770 
Q 2525 4250 2034 4250 
z
M 2034 4750 
Q 2819 4750 3233 4129 
Q 3647 3509 3647 2328 
Q 3647 1150 3233 529 
Q 2819 -91 2034 -91 
Q 1250 -91 836 529 
Q 422 1150 422 2328 
Q 422 3509 836 4129 
Q 1250 4750 2034 4750 
z
" id="DejaVuSans-30" transform="scale(0.015625)"/>
       </defs>
       <use xlink:href="#DejaVuSans-30"/>
      </g>
     </g>
    </g>
    <g id="xtick_2">
     <g id="line2d_2">
      <g>
       <use style="stroke:#000000;stroke-width:0.8;" x="130.151843" xlink:href="#m808b5134b4" y="252"/>
      </g>
     </g>
     <g id="text_2">
      <!-- 200 -->
      <g transform="translate(120.608093 266.598437)scale(0.1 -0.1)">
       <defs>
        <path d="M 1228 531 
L 3431 531 
L 3431 0 
L 469 0 
L 469 531 
Q 828 903 1448 1529 
Q 2069 2156 2228 2338 
Q 2531 2678 2651 2914 
Q 2772 3150 2772 3378 
Q 2772 3750 2511 3984 
Q 2250 4219 1831 4219 
Q 1534 4219 1204 4116 
Q 875 4013 500 3803 
L 500 4441 
Q 881 4594 1212 4672 
Q 1544 4750 1819 4750 
Q 2544 4750 2975 4387 
Q 3406 4025 3406 3419 
Q 3406 3131 3298 2873 
Q 3191 2616 2906 2266 
Q 2828 2175 2409 1742 
Q 1991 1309 1228 531 
z
" id="DejaVuSans-32" transform="scale(0.015625)"/>
       </defs>
       <use xlink:href="#DejaVuSans-32"/>
       <use x="63.623047" xlink:href="#DejaVuSans-30"/>
       <use x="127.246094" xlink:href="#DejaVuSans-30"/>
      </g>
     </g>
    </g>
    <g id="xtick_3">
     <g id="line2d_3">
      <g>
       <use style="stroke:#000000;stroke-width:0.8;" x="191.085504" xlink:href="#m808b5134b4" y="252"/>
      </g>
     </g>
     <g id="text_3">
      <!-- 400 -->
      <g transform="translate(181.541754 266.598437)scale(0.1 -0.1)">
       <defs>
        <path d="M 2419 4116 
L 825 1625 
L 2419 1625 
L 2419 4116 
z
M 2253 4666 
L 3047 4666 
L 3047 1625 
L 3713 1625 
L 3713 1100 
L 3047 1100 
L 3047 0 
L 2419 0 
L 2419 1100 
L 313 1100 
L 313 1709 
L 2253 4666 
z
" id="DejaVuSans-34" transform="scale(0.015625)"/>
       </defs>
       <use xlink:href="#DejaVuSans-34"/>
       <use x="63.623047" xlink:href="#DejaVuSans-30"/>
       <use x="127.246094" xlink:href="#DejaVuSans-30"/>
      </g>
     </g>
    </g>
    <g id="xtick_4">
     <g id="line2d_4">
      <g>
       <use style="stroke:#000000;stroke-width:0.8;" x="252.019165" xlink:href="#m808b5134b4" y="252"/>
      </g>
     </g>
     <g id="text_4">
      <!-- 600 -->
      <g transform="translate(242.475415 266.598437)scale(0.1 -0.1)">
       <defs>
        <path d="M 2113 2584 
Q 1688 2584 1439 2293 
Q 1191 2003 1191 1497 
Q 1191 994 1439 701 
Q 1688 409 2113 409 
Q 2538 409 2786 701 
Q 3034 994 3034 1497 
Q 3034 2003 2786 2293 
Q 2538 2584 2113 2584 
z
M 3366 4563 
L 3366 3988 
Q 3128 4100 2886 4159 
Q 2644 4219 2406 4219 
Q 1781 4219 1451 3797 
Q 1122 3375 1075 2522 
Q 1259 2794 1537 2939 
Q 1816 3084 2150 3084 
Q 2853 3084 3261 2657 
Q 3669 2231 3669 1497 
Q 3669 778 3244 343 
Q 2819 -91 2113 -91 
Q 1303 -91 875 529 
Q 447 1150 447 2328 
Q 447 3434 972 4092 
Q 1497 4750 2381 4750 
Q 2619 4750 2861 4703 
Q 3103 4656 3366 4563 
z
" id="DejaVuSans-36" transform="scale(0.015625)"/>
       </defs>
       <use xlink:href="#DejaVuSans-36"/>
       <use x="63.623047" xlink:href="#DejaVuSans-30"/>
       <use x="127.246094" xlink:href="#DejaVuSans-30"/>
      </g>
     </g>
    </g>
    <g id="xtick_5">
     <g id="line2d_5">
      <g>
       <use style="stroke:#000000;stroke-width:0.8;" x="312.952826" xlink:href="#m808b5134b4" y="252"/>
      </g>
     </g>
     <g id="text_5">
      <!-- 800 -->
      <g transform="translate(303.409076 266.598437)scale(0.1 -0.1)">
       <defs>
        <path d="M 2034 2216 
Q 1584 2216 1326 1975 
Q 1069 1734 1069 1313 
Q 1069 891 1326 650 
Q 1584 409 2034 409 
Q 2484 409 2743 651 
Q 3003 894 3003 1313 
Q 3003 1734 2745 1975 
Q 2488 2216 2034 2216 
z
M 1403 2484 
Q 997 2584 770 2862 
Q 544 3141 544 3541 
Q 544 4100 942 4425 
Q 1341 4750 2034 4750 
Q 2731 4750 3128 4425 
Q 3525 4100 3525 3541 
Q 3525 3141 3298 2862 
Q 3072 2584 2669 2484 
Q 3125 2378 3379 2068 
Q 3634 1759 3634 1313 
Q 3634 634 3220 271 
Q 2806 -91 2034 -91 
Q 1263 -91 848 271 
Q 434 634 434 1313 
Q 434 1759 690 2068 
Q 947 2378 1403 2484 
z
M 1172 3481 
Q 1172 3119 1398 2916 
Q 1625 2713 2034 2713 
Q 2441 2713 2670 2916 
Q 2900 3119 2900 3481 
Q 2900 3844 2670 4047 
Q 2441 4250 2034 4250 
Q 1625 4250 1398 4047 
Q 1172 3844 1172 3481 
z
" id="DejaVuSans-38" transform="scale(0.015625)"/>
       </defs>
       <use xlink:href="#DejaVuSans-38"/>
       <use x="63.623047" xlink:href="#DejaVuSans-30"/>
       <use x="127.246094" xlink:href="#DejaVuSans-30"/>
      </g>
     </g>
    </g>
    <g id="xtick_6">
     <g id="line2d_6">
      <g>
       <use style="stroke:#000000;stroke-width:0.8;" x="373.886486" xlink:href="#m808b5134b4" y="252"/>
      </g>
     </g>
     <g id="text_6">
      <!-- 1000 -->
      <g transform="translate(361.161486 266.598437)scale(0.1 -0.1)">
       <defs>
        <path d="M 794 531 
L 1825 531 
L 1825 4091 
L 703 3866 
L 703 4441 
L 1819 4666 
L 2450 4666 
L 2450 531 
L 3481 531 
L 3481 0 
L 794 0 
L 794 531 
z
" id="DejaVuSans-31" transform="scale(0.015625)"/>
       </defs>
       <use xlink:href="#DejaVuSans-31"/>
       <use x="63.623047" xlink:href="#DejaVuSans-30"/>
       <use x="127.246094" xlink:href="#DejaVuSans-30"/>
       <use x="190.869141" xlink:href="#DejaVuSans-30"/>
      </g>
     </g>
    </g>
    <g id="text_7">
     <!-- epoch -->
     <g transform="translate(206.171875 280.276563)scale(0.1 -0.1)">
      <defs>
       <path d="M 3597 1894 
L 3597 1613 
L 953 1613 
Q 991 1019 1311 708 
Q 1631 397 2203 397 
Q 2534 397 2845 478 
Q 3156 559 3463 722 
L 3463 178 
Q 3153 47 2828 -22 
Q 2503 -91 2169 -91 
Q 1331 -91 842 396 
Q 353 884 353 1716 
Q 353 2575 817 3079 
Q 1281 3584 2069 3584 
Q 2775 3584 3186 3129 
Q 3597 2675 3597 1894 
z
M 3022 2063 
Q 3016 2534 2758 2815 
Q 2500 3097 2075 3097 
Q 1594 3097 1305 2825 
Q 1016 2553 972 2059 
L 3022 2063 
z
" id="DejaVuSans-65" transform="scale(0.015625)"/>
       <path d="M 1159 525 
L 1159 -1331 
L 581 -1331 
L 581 3500 
L 1159 3500 
L 1159 2969 
Q 1341 3281 1617 3432 
Q 1894 3584 2278 3584 
Q 2916 3584 3314 3078 
Q 3713 2572 3713 1747 
Q 3713 922 3314 415 
Q 2916 -91 2278 -91 
Q 1894 -91 1617 61 
Q 1341 213 1159 525 
z
M 3116 1747 
Q 3116 2381 2855 2742 
Q 2594 3103 2138 3103 
Q 1681 3103 1420 2742 
Q 1159 2381 1159 1747 
Q 1159 1113 1420 752 
Q 1681 391 2138 391 
Q 2594 391 2855 752 
Q 3116 1113 3116 1747 
z
" id="DejaVuSans-70" transform="scale(0.015625)"/>
       <path d="M 1959 3097 
Q 1497 3097 1228 2736 
Q 959 2375 959 1747 
Q 959 1119 1226 758 
Q 1494 397 1959 397 
Q 2419 397 2687 759 
Q 2956 1122 2956 1747 
Q 2956 2369 2687 2733 
Q 2419 3097 1959 3097 
z
M 1959 3584 
Q 2709 3584 3137 3096 
Q 3566 2609 3566 1747 
Q 3566 888 3137 398 
Q 2709 -91 1959 -91 
Q 1206 -91 779 398 
Q 353 888 353 1747 
Q 353 2609 779 3096 
Q 1206 3584 1959 3584 
z
" id="DejaVuSans-6f" transform="scale(0.015625)"/>
       <path d="M 3122 3366 
L 3122 2828 
Q 2878 2963 2633 3030 
Q 2388 3097 2138 3097 
Q 1578 3097 1268 2742 
Q 959 2388 959 1747 
Q 959 1106 1268 751 
Q 1578 397 2138 397 
Q 2388 397 2633 464 
Q 2878 531 3122 666 
L 3122 134 
Q 2881 22 2623 -34 
Q 2366 -91 2075 -91 
Q 1284 -91 818 406 
Q 353 903 353 1747 
Q 353 2603 823 3093 
Q 1294 3584 2113 3584 
Q 2378 3584 2631 3529 
Q 2884 3475 3122 3366 
z
" id="DejaVuSans-63" transform="scale(0.015625)"/>
       <path d="M 3513 2113 
L 3513 0 
L 2938 0 
L 2938 2094 
Q 2938 2591 2744 2837 
Q 2550 3084 2163 3084 
Q 1697 3084 1428 2787 
Q 1159 2491 1159 1978 
L 1159 0 
L 581 0 
L 581 4863 
L 1159 4863 
L 1159 2956 
Q 1366 3272 1645 3428 
Q 1925 3584 2291 3584 
Q 2894 3584 3203 3211 
Q 3513 2838 3513 2113 
z
" id="DejaVuSans-68" transform="scale(0.015625)"/>
      </defs>
      <use xlink:href="#DejaVuSans-65"/>
      <use x="61.523438" xlink:href="#DejaVuSans-70"/>
      <use x="125" xlink:href="#DejaVuSans-6f"/>
      <use x="186.181641" xlink:href="#DejaVuSans-63"/>
      <use x="241.162109" xlink:href="#DejaVuSans-68"/>
     </g>
    </g>
   </g>
   <g id="matplotlib.axis_2">
    <g id="ytick_1">
     <g id="line2d_7">
      <defs>
       <path d="M 0 0 
L -3.5 0 
" id="m4e1356c167" style="stroke:#000000;stroke-width:0.8;"/>
      </defs>
      <g>
       <use style="stroke:#000000;stroke-width:0.8;" x="54" xlink:href="#m4e1356c167" y="242.155146"/>
      </g>
     </g>
     <g id="text_8">
      <!-- 0 -->
      <g transform="translate(40.6375 245.954365)scale(0.1 -0.1)">
       <use xlink:href="#DejaVuSans-30"/>
      </g>
     </g>
    </g>
    <g id="ytick_2">
     <g id="line2d_8">
      <g>
       <use style="stroke:#000000;stroke-width:0.8;" x="54" xlink:href="#m4e1356c167" y="201.721668"/>
      </g>
     </g>
     <g id="text_9">
      <!-- 5 -->
      <g transform="translate(40.6375 205.520887)scale(0.1 -0.1)">
       <defs>
        <path d="M 691 4666 
L 3169 4666 
L 3169 4134 
L 1269 4134 
L 1269 2991 
Q 1406 3038 1543 3061 
Q 1681 3084 1819 3084 
Q 2600 3084 3056 2656 
Q 3513 2228 3513 1497 
Q 3513 744 3044 326 
Q 2575 -91 1722 -91 
Q 1428 -91 1123 -41 
Q 819 9 494 109 
L 494 744 
Q 775 591 1075 516 
Q 1375 441 1709 441 
Q 2250 441 2565 725 
Q 2881 1009 2881 1497 
Q 2881 1984 2565 2268 
Q 2250 2553 1709 2553 
Q 1456 2553 1204 2497 
Q 953 2441 691 2322 
L 691 4666 
z
" id="DejaVuSans-35" transform="scale(0.015625)"/>
       </defs>
       <use xlink:href="#DejaVuSans-35"/>
      </g>
     </g>
    </g>
    <g id="ytick_3">
     <g id="line2d_9">
      <g>
       <use style="stroke:#000000;stroke-width:0.8;" x="54" xlink:href="#m4e1356c167" y="161.288189"/>
      </g>
     </g>
     <g id="text_10">
      <!-- 10 -->
      <g transform="translate(34.275 165.087408)scale(0.1 -0.1)">
       <use xlink:href="#DejaVuSans-31"/>
       <use x="63.623047" xlink:href="#DejaVuSans-30"/>
      </g>
     </g>
    </g>
    <g id="ytick_4">
     <g id="line2d_10">
      <g>
       <use style="stroke:#000000;stroke-width:0.8;" x="54" xlink:href="#m4e1356c167" y="120.854711"/>
      </g>
     </g>
     <g id="text_11">
      <!-- 15 -->
      <g transform="translate(34.275 124.65393)scale(0.1 -0.1)">
       <use xlink:href="#DejaVuSans-31"/>
       <use x="63.623047" xlink:href="#DejaVuSans-35"/>
      </g>
     </g>
    </g>
    <g id="ytick_5">
     <g id="line2d_11">
      <g>
       <use style="stroke:#000000;stroke-width:0.8;" x="54" xlink:href="#m4e1356c167" y="80.421233"/>
      </g>
     </g>
     <g id="text_12">
      <!-- 20 -->
      <g transform="translate(34.275 84.220451)scale(0.1 -0.1)">
       <use xlink:href="#DejaVuSans-32"/>
       <use x="63.623047" xlink:href="#DejaVuSans-30"/>
      </g>
     </g>
    </g>
    <g id="ytick_6">
     <g id="line2d_12">
      <g>
       <use style="stroke:#000000;stroke-width:0.8;" x="54" xlink:href="#m4e1356c167" y="39.987754"/>
      </g>
     </g>
     <g id="text_13">
      <!-- 25 -->
      <g transform="translate(34.275 43.786973)scale(0.1 -0.1)">
       <use xlink:href="#DejaVuSans-32"/>
       <use x="63.623047" xlink:href="#DejaVuSans-35"/>
      </g>
     </g>
    </g>
    <g id="text_14">
     <!-- loss -->
     <g transform="translate(28.195312 152.937813)rotate(-90)scale(0.1 -0.1)">
      <defs>
       <path d="M 603 4863 
L 1178 4863 
L 1178 0 
L 603 0 
L 603 4863 
z
" id="DejaVuSans-6c" transform="scale(0.015625)"/>
       <path d="M 2834 3397 
L 2834 2853 
Q 2591 2978 2328 3040 
Q 2066 3103 1784 3103 
Q 1356 3103 1142 2972 
Q 928 2841 928 2578 
Q 928 2378 1081 2264 
Q 1234 2150 1697 2047 
L 1894 2003 
Q 2506 1872 2764 1633 
Q 3022 1394 3022 966 
Q 3022 478 2636 193 
Q 2250 -91 1575 -91 
Q 1294 -91 989 -36 
Q 684 19 347 128 
L 347 722 
Q 666 556 975 473 
Q 1284 391 1588 391 
Q 1994 391 2212 530 
Q 2431 669 2431 922 
Q 2431 1156 2273 1281 
Q 2116 1406 1581 1522 
L 1381 1569 
Q 847 1681 609 1914 
Q 372 2147 372 2553 
Q 372 3047 722 3315 
Q 1072 3584 1716 3584 
Q 2034 3584 2315 3537 
Q 2597 3491 2834 3397 
z
" id="DejaVuSans-73" transform="scale(0.015625)"/>
      </defs>
      <use xlink:href="#DejaVuSans-6c"/>
      <use x="27.783203" xlink:href="#DejaVuSans-6f"/>
      <use x="88.964844" xlink:href="#DejaVuSans-73"/>
      <use x="141.064453" xlink:href="#DejaVuSans-73"/>
     </g>
    </g>
   </g>
   <g id="line2d_13">
    <path clip-path="url(#p13aadda519)" d="M 69.218182 214.61351 
L 90.544963 214.726664 
L 132.893857 215.1011 
L 147.822604 215.438862 
L 159.095332 215.923651 
L 169.758722 216.345931 
L 188.648157 216.760469 
L 219.114988 217.407344 
L 229.47371 217.861201 
L 235.871744 218.344234 
L 240.746437 218.920165 
L 244.402457 219.550714 
L 248.058477 220.416452 
L 251.10516 221.34789 
L 254.151843 222.521673 
L 256.893857 223.802167 
L 259.331204 225.152431 
L 261.76855 226.730587 
L 264.510565 228.744473 
L 269.385258 232.765693 
L 273.041278 235.621862 
L 275.478624 237.254793 
L 277.611302 238.442304 
L 280.048649 239.515322 
L 282.181327 240.221627 
L 284.618673 240.795864 
L 287.665356 241.250163 
L 291.626044 241.576076 
L 297.414742 241.805399 
L 309.296806 241.977595 
L 337.630958 242.082157 
L 373.581818 242.116364 
L 373.581818 242.116364 
" style="fill:none;stroke:#ff0000;stroke-linecap:square;stroke-width:1.5;"/>
   </g>
   <g id="line2d_14">
    <path clip-path="url(#p13aadda519)" d="M 69.218182 214.638339 
L 148.431941 214.543513 
L 157.267322 214.321992 
L 163.360688 213.941736 
L 174.024079 213.184825 
L 197.17887 212.329766 
L 217.286978 211.499546 
L 226.122359 210.923923 
L 232.825061 210.270643 
L 237.699754 209.592884 
L 241.355774 208.88487 
L 244.402457 208.104338 
L 247.144472 207.184631 
L 249.581818 206.104756 
L 252.019165 204.782216 
L 253.847174 203.580872 
L 255.979853 201.895675 
L 257.807862 200.211547 
L 259.635872 198.262741 
L 261.159214 196.36185 
L 262.377887 194.53029 
L 264.205897 191.349457 
L 265.729238 188.015153 
L 267.861916 182.845241 
L 269.385258 178.555832 
L 270.9086 173.844024 
L 273.345946 165.583784 
L 277.001966 151.855991 
L 284.618673 122.489864 
L 286.751351 115.534984 
L 289.493366 107.603671 
L 292.844717 99.562986 
L 294.368059 96.459724 
L 296.500737 92.631034 
L 299.852088 87.381796 
L 302.898771 83.338772 
L 305.03145 80.816677 
L 306.250123 79.444344 
L 308.687469 76.934913 
L 312.343489 73.568777 
L 319.655528 67.902285 
L 322.702211 65.854235 
L 326.053563 63.765266 
L 330.623587 61.1584 
L 336.716953 58.040054 
L 344.028993 54.710273 
L 353.47371 50.972154 
L 357.434398 49.559456 
L 369.925799 45.513286 
L 373.581818 44.443636 
L 373.581818 44.443636 
" style="fill:none;stroke:#008000;stroke-linecap:square;stroke-width:1.5;"/>
   </g>
   <g id="patch_3">
    <path d="M 54 252 
L 54 34.56 
" style="fill:none;stroke:#000000;stroke-linecap:square;stroke-linejoin:miter;stroke-width:0.8;"/>
   </g>
   <g id="patch_4">
    <path d="M 388.8 252 
L 388.8 34.56 
" style="fill:none;stroke:#000000;stroke-linecap:square;stroke-linejoin:miter;stroke-width:0.8;"/>
   </g>
   <g id="patch_5">
    <path d="M 54 252 
L 388.8 252 
" style="fill:none;stroke:#000000;stroke-linecap:square;stroke-linejoin:miter;stroke-width:0.8;"/>
   </g>
   <g id="patch_6">
    <path d="M 54 34.56 
L 388.8 34.56 
" style="fill:none;stroke:#000000;stroke-linecap:square;stroke-linejoin:miter;stroke-width:0.8;"/>
   </g>
   <g id="text_15">
    <!-- Training and test loss, and test accuracy -->
    <g transform="translate(100.099688 28.56)scale(0.12 -0.12)">
     <defs>
      <path d="M -19 4666 
L 3928 4666 
L 3928 4134 
L 2272 4134 
L 2272 0 
L 1638 0 
L 1638 4134 
L -19 4134 
L -19 4666 
z
" id="DejaVuSans-54" transform="scale(0.015625)"/>
      <path d="M 2631 2963 
Q 2534 3019 2420 3045 
Q 2306 3072 2169 3072 
Q 1681 3072 1420 2755 
Q 1159 2438 1159 1844 
L 1159 0 
L 581 0 
L 581 3500 
L 1159 3500 
L 1159 2956 
Q 1341 3275 1631 3429 
Q 1922 3584 2338 3584 
Q 2397 3584 2469 3576 
Q 2541 3569 2628 3553 
L 2631 2963 
z
" id="DejaVuSans-72" transform="scale(0.015625)"/>
      <path d="M 2194 1759 
Q 1497 1759 1228 1600 
Q 959 1441 959 1056 
Q 959 750 1161 570 
Q 1363 391 1709 391 
Q 2188 391 2477 730 
Q 2766 1069 2766 1631 
L 2766 1759 
L 2194 1759 
z
M 3341 1997 
L 3341 0 
L 2766 0 
L 2766 531 
Q 2569 213 2275 61 
Q 1981 -91 1556 -91 
Q 1019 -91 701 211 
Q 384 513 384 1019 
Q 384 1609 779 1909 
Q 1175 2209 1959 2209 
L 2766 2209 
L 2766 2266 
Q 2766 2663 2505 2880 
Q 2244 3097 1772 3097 
Q 1472 3097 1187 3025 
Q 903 2953 641 2809 
L 641 3341 
Q 956 3463 1253 3523 
Q 1550 3584 1831 3584 
Q 2591 3584 2966 3190 
Q 3341 2797 3341 1997 
z
" id="DejaVuSans-61" transform="scale(0.015625)"/>
      <path d="M 603 3500 
L 1178 3500 
L 1178 0 
L 603 0 
L 603 3500 
z
M 603 4863 
L 1178 4863 
L 1178 4134 
L 603 4134 
L 603 4863 
z
" id="DejaVuSans-69" transform="scale(0.015625)"/>
      <path d="M 3513 2113 
L 3513 0 
L 2938 0 
L 2938 2094 
Q 2938 2591 2744 2837 
Q 2550 3084 2163 3084 
Q 1697 3084 1428 2787 
Q 1159 2491 1159 1978 
L 1159 0 
L 581 0 
L 581 3500 
L 1159 3500 
L 1159 2956 
Q 1366 3272 1645 3428 
Q 1925 3584 2291 3584 
Q 2894 3584 3203 3211 
Q 3513 2838 3513 2113 
z
" id="DejaVuSans-6e" transform="scale(0.015625)"/>
      <path d="M 2906 1791 
Q 2906 2416 2648 2759 
Q 2391 3103 1925 3103 
Q 1463 3103 1205 2759 
Q 947 2416 947 1791 
Q 947 1169 1205 825 
Q 1463 481 1925 481 
Q 2391 481 2648 825 
Q 2906 1169 2906 1791 
z
M 3481 434 
Q 3481 -459 3084 -895 
Q 2688 -1331 1869 -1331 
Q 1566 -1331 1297 -1286 
Q 1028 -1241 775 -1147 
L 775 -588 
Q 1028 -725 1275 -790 
Q 1522 -856 1778 -856 
Q 2344 -856 2625 -561 
Q 2906 -266 2906 331 
L 2906 616 
Q 2728 306 2450 153 
Q 2172 0 1784 0 
Q 1141 0 747 490 
Q 353 981 353 1791 
Q 353 2603 747 3093 
Q 1141 3584 1784 3584 
Q 2172 3584 2450 3431 
Q 2728 3278 2906 2969 
L 2906 3500 
L 3481 3500 
L 3481 434 
z
" id="DejaVuSans-67" transform="scale(0.015625)"/>
      <path id="DejaVuSans-20" transform="scale(0.015625)"/>
      <path d="M 2906 2969 
L 2906 4863 
L 3481 4863 
L 3481 0 
L 2906 0 
L 2906 525 
Q 2725 213 2448 61 
Q 2172 -91 1784 -91 
Q 1150 -91 751 415 
Q 353 922 353 1747 
Q 353 2572 751 3078 
Q 1150 3584 1784 3584 
Q 2172 3584 2448 3432 
Q 2725 3281 2906 2969 
z
M 947 1747 
Q 947 1113 1208 752 
Q 1469 391 1925 391 
Q 2381 391 2643 752 
Q 2906 1113 2906 1747 
Q 2906 2381 2643 2742 
Q 2381 3103 1925 3103 
Q 1469 3103 1208 2742 
Q 947 2381 947 1747 
z
" id="DejaVuSans-64" transform="scale(0.015625)"/>
      <path d="M 1172 4494 
L 1172 3500 
L 2356 3500 
L 2356 3053 
L 1172 3053 
L 1172 1153 
Q 1172 725 1289 603 
Q 1406 481 1766 481 
L 2356 481 
L 2356 0 
L 1766 0 
Q 1100 0 847 248 
Q 594 497 594 1153 
L 594 3053 
L 172 3053 
L 172 3500 
L 594 3500 
L 594 4494 
L 1172 4494 
z
" id="DejaVuSans-74" transform="scale(0.015625)"/>
      <path d="M 750 794 
L 1409 794 
L 1409 256 
L 897 -744 
L 494 -744 
L 750 256 
L 750 794 
z
" id="DejaVuSans-2c" transform="scale(0.015625)"/>
      <path d="M 544 1381 
L 544 3500 
L 1119 3500 
L 1119 1403 
Q 1119 906 1312 657 
Q 1506 409 1894 409 
Q 2359 409 2629 706 
Q 2900 1003 2900 1516 
L 2900 3500 
L 3475 3500 
L 3475 0 
L 2900 0 
L 2900 538 
Q 2691 219 2414 64 
Q 2138 -91 1772 -91 
Q 1169 -91 856 284 
Q 544 659 544 1381 
z
M 1991 3584 
L 1991 3584 
z
" id="DejaVuSans-75" transform="scale(0.015625)"/>
      <path d="M 2059 -325 
Q 1816 -950 1584 -1140 
Q 1353 -1331 966 -1331 
L 506 -1331 
L 506 -850 
L 844 -850 
Q 1081 -850 1212 -737 
Q 1344 -625 1503 -206 
L 1606 56 
L 191 3500 
L 800 3500 
L 1894 763 
L 2988 3500 
L 3597 3500 
L 2059 -325 
z
" id="DejaVuSans-79" transform="scale(0.015625)"/>
     </defs>
     <use xlink:href="#DejaVuSans-54"/>
     <use x="46.333984" xlink:href="#DejaVuSans-72"/>
     <use x="87.447266" xlink:href="#DejaVuSans-61"/>
     <use x="148.726562" xlink:href="#DejaVuSans-69"/>
     <use x="176.509766" xlink:href="#DejaVuSans-6e"/>
     <use x="239.888672" xlink:href="#DejaVuSans-69"/>
     <use x="267.671875" xlink:href="#DejaVuSans-6e"/>
     <use x="331.050781" xlink:href="#DejaVuSans-67"/>
     <use x="394.527344" xlink:href="#DejaVuSans-20"/>
     <use x="426.314453" xlink:href="#DejaVuSans-61"/>
     <use x="487.59375" xlink:href="#DejaVuSans-6e"/>
     <use x="550.972656" xlink:href="#DejaVuSans-64"/>
     <use x="614.449219" xlink:href="#DejaVuSans-20"/>
     <use x="646.236328" xlink:href="#DejaVuSans-74"/>
     <use x="685.445312" xlink:href="#DejaVuSans-65"/>
     <use x="746.96875" xlink:href="#DejaVuSans-73"/>
     <use x="799.068359" xlink:href="#DejaVuSans-74"/>
     <use x="838.277344" xlink:href="#DejaVuSans-20"/>
     <use x="870.064453" xlink:href="#DejaVuSans-6c"/>
     <use x="897.847656" xlink:href="#DejaVuSans-6f"/>
     <use x="959.029297" xlink:href="#DejaVuSans-73"/>
     <use x="1011.128906" xlink:href="#DejaVuSans-73"/>
     <use x="1063.228516" xlink:href="#DejaVuSans-2c"/>
     <use x="1095.015625" xlink:href="#DejaVuSans-20"/>
     <use x="1126.802734" xlink:href="#DejaVuSans-61"/>
     <use x="1188.082031" xlink:href="#DejaVuSans-6e"/>
     <use x="1251.460938" xlink:href="#DejaVuSans-64"/>
     <use x="1314.9375" xlink:href="#DejaVuSans-20"/>
     <use x="1346.724609" xlink:href="#DejaVuSans-74"/>
     <use x="1385.933594" xlink:href="#DejaVuSans-65"/>
     <use x="1447.457031" xlink:href="#DejaVuSans-73"/>
     <use x="1499.556641" xlink:href="#DejaVuSans-74"/>
     <use x="1538.765625" xlink:href="#DejaVuSans-20"/>
     <use x="1570.552734" xlink:href="#DejaVuSans-61"/>
     <use x="1631.832031" xlink:href="#DejaVuSans-63"/>
     <use x="1686.8125" xlink:href="#DejaVuSans-63"/>
     <use x="1741.792969" xlink:href="#DejaVuSans-75"/>
     <use x="1805.171875" xlink:href="#DejaVuSans-72"/>
     <use x="1846.285156" xlink:href="#DejaVuSans-61"/>
     <use x="1907.564453" xlink:href="#DejaVuSans-63"/>
     <use x="1962.544922" xlink:href="#DejaVuSans-79"/>
    </g>
   </g>
   <g id="legend_1">
    <g id="patch_7">
     <path d="M 288.567188 247 
L 381.8 247 
Q 383.8 247 383.8 245 
L 383.8 216.64375 
Q 383.8 214.64375 381.8 214.64375 
L 288.567188 214.64375 
Q 286.567188 214.64375 286.567188 216.64375 
L 286.567188 245 
Q 286.567188 247 288.567188 247 
z
" style="fill:#ffffff;opacity:0.8;stroke:#cccccc;stroke-linejoin:miter;"/>
    </g>
    <g id="line2d_15">
     <path d="M 290.567188 222.742188 
L 310.567188 222.742188 
" style="fill:none;stroke:#ff0000;stroke-linecap:square;stroke-width:1.5;"/>
    </g>
    <g id="line2d_16"/>
    <g id="text_16">
     <!-- training loss -->
     <g transform="translate(318.567188 226.242188)scale(0.1 -0.1)">
      <use xlink:href="#DejaVuSans-74"/>
      <use x="39.208984" xlink:href="#DejaVuSans-72"/>
      <use x="80.322266" xlink:href="#DejaVuSans-61"/>
      <use x="141.601562" xlink:href="#DejaVuSans-69"/>
      <use x="169.384766" xlink:href="#DejaVuSans-6e"/>
      <use x="232.763672" xlink:href="#DejaVuSans-69"/>
      <use x="260.546875" xlink:href="#DejaVuSans-6e"/>
      <use x="323.925781" xlink:href="#DejaVuSans-67"/>
      <use x="387.402344" xlink:href="#DejaVuSans-20"/>
      <use x="419.189453" xlink:href="#DejaVuSans-6c"/>
      <use x="446.972656" xlink:href="#DejaVuSans-6f"/>
      <use x="508.154297" xlink:href="#DejaVuSans-73"/>
      <use x="560.253906" xlink:href="#DejaVuSans-73"/>
     </g>
    </g>
    <g id="line2d_17">
     <path d="M 290.567188 237.420312 
L 310.567188 237.420312 
" style="fill:none;stroke:#008000;stroke-linecap:square;stroke-width:1.5;"/>
    </g>
    <g id="line2d_18"/>
    <g id="text_17">
     <!-- test loss -->
     <g transform="translate(318.567188 240.920312)scale(0.1 -0.1)">
      <use xlink:href="#DejaVuSans-74"/>
      <use x="39.208984" xlink:href="#DejaVuSans-65"/>
      <use x="100.732422" xlink:href="#DejaVuSans-73"/>
      <use x="152.832031" xlink:href="#DejaVuSans-74"/>
      <use x="192.041016" xlink:href="#DejaVuSans-20"/>
      <use x="223.828125" xlink:href="#DejaVuSans-6c"/>
      <use x="251.611328" xlink:href="#DejaVuSans-6f"/>
      <use x="312.792969" xlink:href="#DejaVuSans-73"/>
      <use x="364.892578" xlink:href="#DejaVuSans-73"/>
     </g>
    </g>
   </g>
  </g>
  <g id="axes_2">
   <g id="matplotlib.axis_3">
    <g id="ytick_7">
     <g id="line2d_19">
      <defs>
       <path d="M 0 0 
L 3.5 0 
" id="m4299eb64ee" style="stroke:#000000;stroke-width:0.8;"/>
      </defs>
      <g>
       <use style="stroke:#000000;stroke-width:0.8;" x="388.8" xlink:href="#m4299eb64ee" y="245.254026"/>
      </g>
     </g>
     <g id="text_18">
      <!-- 0.0 -->
      <g transform="translate(395.8 249.053245)scale(0.1 -0.1)">
       <defs>
        <path d="M 684 794 
L 1344 794 
L 1344 0 
L 684 0 
L 684 794 
z
" id="DejaVuSans-2e" transform="scale(0.015625)"/>
       </defs>
       <use xlink:href="#DejaVuSans-30"/>
       <use x="63.623047" xlink:href="#DejaVuSans-2e"/>
       <use x="95.410156" xlink:href="#DejaVuSans-30"/>
      </g>
     </g>
    </g>
    <g id="ytick_8">
     <g id="line2d_20">
      <g>
       <use style="stroke:#000000;stroke-width:0.8;" x="388.8" xlink:href="#m4299eb64ee" y="205.091948"/>
      </g>
     </g>
     <g id="text_19">
      <!-- 0.2 -->
      <g transform="translate(395.8 208.891167)scale(0.1 -0.1)">
       <use xlink:href="#DejaVuSans-30"/>
       <use x="63.623047" xlink:href="#DejaVuSans-2e"/>
       <use x="95.410156" xlink:href="#DejaVuSans-32"/>
      </g>
     </g>
    </g>
    <g id="ytick_9">
     <g id="line2d_21">
      <g>
       <use style="stroke:#000000;stroke-width:0.8;" x="388.8" xlink:href="#m4299eb64ee" y="164.92987"/>
      </g>
     </g>
     <g id="text_20">
      <!-- 0.4 -->
      <g transform="translate(395.8 168.729089)scale(0.1 -0.1)">
       <use xlink:href="#DejaVuSans-30"/>
       <use x="63.623047" xlink:href="#DejaVuSans-2e"/>
       <use x="95.410156" xlink:href="#DejaVuSans-34"/>
      </g>
     </g>
    </g>
    <g id="ytick_10">
     <g id="line2d_22">
      <g>
       <use style="stroke:#000000;stroke-width:0.8;" x="388.8" xlink:href="#m4299eb64ee" y="124.767792"/>
      </g>
     </g>
     <g id="text_21">
      <!-- 0.6 -->
      <g transform="translate(395.8 128.567011)scale(0.1 -0.1)">
       <use xlink:href="#DejaVuSans-30"/>
       <use x="63.623047" xlink:href="#DejaVuSans-2e"/>
       <use x="95.410156" xlink:href="#DejaVuSans-36"/>
      </g>
     </g>
    </g>
    <g id="ytick_11">
     <g id="line2d_23">
      <g>
       <use style="stroke:#000000;stroke-width:0.8;" x="388.8" xlink:href="#m4299eb64ee" y="84.605714"/>
      </g>
     </g>
     <g id="text_22">
      <!-- 0.8 -->
      <g transform="translate(395.8 88.404933)scale(0.1 -0.1)">
       <use xlink:href="#DejaVuSans-30"/>
       <use x="63.623047" xlink:href="#DejaVuSans-2e"/>
       <use x="95.410156" xlink:href="#DejaVuSans-38"/>
      </g>
     </g>
    </g>
    <g id="ytick_12">
     <g id="line2d_24">
      <g>
       <use style="stroke:#000000;stroke-width:0.8;" x="388.8" xlink:href="#m4299eb64ee" y="44.443636"/>
      </g>
     </g>
     <g id="text_23">
      <!-- 1.0 -->
      <g transform="translate(395.8 48.242855)scale(0.1 -0.1)">
       <use xlink:href="#DejaVuSans-31"/>
       <use x="63.623047" xlink:href="#DejaVuSans-2e"/>
       <use x="95.410156" xlink:href="#DejaVuSans-30"/>
      </g>
     </g>
    </g>
    <g id="text_24">
     <!-- accuracy -->
     <g transform="translate(423.301562 165.839375)rotate(-90)scale(0.1 -0.1)">
      <use xlink:href="#DejaVuSans-61"/>
      <use x="61.279297" xlink:href="#DejaVuSans-63"/>
      <use x="116.259766" xlink:href="#DejaVuSans-63"/>
      <use x="171.240234" xlink:href="#DejaVuSans-75"/>
      <use x="234.619141" xlink:href="#DejaVuSans-72"/>
      <use x="275.732422" xlink:href="#DejaVuSans-61"/>
      <use x="337.011719" xlink:href="#DejaVuSans-63"/>
      <use x="391.992188" xlink:href="#DejaVuSans-79"/>
     </g>
    </g>
   </g>
   <g id="line2d_25">
    <path clip-path="url(#p13aadda519)" d="M 69.218182 242.116364 
L 82.014251 242.116364 
L 82.318919 238.978701 
L 82.928256 238.978701 
L 83.232924 232.703377 
L 126.800491 232.703377 
L 127.10516 229.565714 
L 130.456511 229.565714 
L 130.761179 223.29039 
L 131.675184 223.29039 
L 131.979853 226.428052 
L 132.589189 226.428052 
L 132.893857 223.29039 
L 133.503194 223.29039 
L 133.807862 226.428052 
L 136.549877 226.428052 
L 136.854545 229.565714 
L 142.033907 229.565714 
L 142.338575 232.703377 
L 160.009337 232.703377 
L 160.314005 229.565714 
L 161.22801 229.565714 
L 161.532678 226.428052 
L 161.837346 229.565714 
L 162.142015 226.428052 
L 164.884029 226.428052 
L 165.188698 229.565714 
L 189.257494 229.565714 
L 189.562162 226.428052 
L 217.591646 226.428052 
L 217.896314 223.29039 
L 224.599017 223.29039 
L 224.903686 220.152727 
L 225.513022 220.152727 
L 225.81769 217.015065 
L 230.692383 217.015065 
L 230.997052 213.877403 
L 231.911057 213.877403 
L 232.215725 210.73974 
L 232.825061 210.73974 
L 233.739066 201.326753 
L 234.348403 201.326753 
L 234.653071 198.189091 
L 237.395086 198.189091 
L 237.699754 195.051429 
L 243.488452 195.051429 
L 244.097789 188.776104 
L 244.402457 188.776104 
L 244.707125 185.638442 
L 245.011794 185.638442 
L 245.316462 182.500779 
L 246.230467 182.500779 
L 246.535135 179.363117 
L 246.839803 179.363117 
L 247.144472 176.225455 
L 247.753808 176.225455 
L 248.058477 173.087792 
L 248.363145 173.087792 
L 248.667813 169.95013 
L 249.27715 169.95013 
L 249.581818 166.812468 
L 251.714496 166.812468 
L 252.323833 160.537143 
L 253.237838 160.537143 
L 253.542506 163.674805 
L 254.151843 163.674805 
L 254.456511 160.537143 
L 255.979853 160.537143 
L 256.284521 163.674805 
L 256.589189 163.674805 
L 256.893857 154.261818 
L 257.807862 154.261818 
L 258.112531 144.848831 
L 258.417199 144.848831 
L 258.721867 147.986494 
L 259.331204 147.986494 
L 259.635872 144.848831 
L 259.940541 144.848831 
L 260.245209 141.711169 
L 260.549877 141.711169 
L 261.159214 135.435844 
L 262.682555 135.435844 
L 262.987224 132.298182 
L 264.205897 132.298182 
L 264.510565 129.160519 
L 265.729238 129.160519 
L 266.033907 126.022857 
L 266.947912 126.022857 
L 267.25258 116.60987 
L 267.557248 116.60987 
L 267.861916 110.334545 
L 268.775921 110.334545 
L 269.994595 97.783896 
L 270.299263 97.783896 
L 270.603931 94.646234 
L 270.9086 88.370909 
L 271.517936 88.370909 
L 271.822604 85.233247 
L 272.127273 85.233247 
L 272.431941 78.957922 
L 272.736609 78.957922 
L 273.041278 75.82026 
L 273.345946 75.82026 
L 273.650614 69.544935 
L 274.259951 63.26961 
L 274.564619 63.26961 
L 274.869287 60.131948 
L 275.173956 60.131948 
L 275.783292 53.856623 
L 277.001966 53.856623 
L 277.611302 47.581299 
L 277.915971 50.718961 
L 278.220639 50.718961 
L 278.525307 47.581299 
L 279.74398 47.581299 
L 280.048649 44.443636 
L 373.581818 44.443636 
L 373.581818 44.443636 
" style="fill:none;stroke:#bf00bf;stroke-linecap:square;stroke-width:1.5;"/>
   </g>
   <g id="line2d_26">
    <path clip-path="url(#p13aadda519)" d="M 69.218182 238.634721 
L 82.014251 238.634721 
L 82.318919 238.411598 
L 82.928256 238.188475 
L 83.232924 237.965353 
L 83.537592 237.593481 
L 83.84226 237.444733 
L 84.146929 236.849739 
L 84.451597 236.552242 
L 85.060934 235.436629 
L 85.67027 234.692887 
L 85.974939 234.841635 
L 86.584275 234.172267 
L 86.888943 234.097893 
L 87.193612 234.692887 
L 87.49828 234.990384 
L 88.412285 236.998488 
L 88.716953 237.370359 
L 89.021622 237.965353 
L 89.935627 238.114101 
L 124.667813 238.039727 
L 125.581818 237.890978 
L 126.191155 237.890978 
L 127.10516 237.444733 
L 127.409828 237.519107 
L 130.456511 236.849739 
L 130.761179 236.32912 
L 131.979853 236.105997 
L 132.284521 236.254746 
L 133.198526 235.8085 
L 133.503194 235.8085 
L 133.807862 236.254746 
L 134.112531 236.32912 
L 134.417199 236.254746 
L 134.721867 236.403494 
L 135.331204 236.849739 
L 135.635872 237.072862 
L 135.940541 237.444733 
L 136.245209 237.593481 
L 136.549877 237.965353 
L 137.76855 238.188475 
L 159.704668 238.188475 
L 160.009337 237.890978 
L 160.618673 237.74223 
L 160.923342 237.519107 
L 161.22801 237.519107 
L 161.532678 237.370359 
L 162.142015 237.593481 
L 162.751351 238.560346 
L 163.05602 238.485972 
L 163.360688 238.709095 
L 163.970025 238.783469 
L 164.579361 238.411598 
L 165.188698 238.634721 
L 165.493366 238.709095 
L 165.798034 238.932217 
L 166.102703 238.783469 
L 166.712039 238.709095 
L 167.016708 238.634721 
L 167.626044 238.709095 
L 216.677641 238.783469 
L 217.286978 238.857843 
L 218.200983 238.783469 
L 218.505651 238.709095 
L 219.114988 238.783469 
L 220.028993 238.634721 
L 223.380344 238.560346 
L 223.989681 238.485972 
L 225.81769 238.411598 
L 226.122359 238.337224 
L 226.731695 238.411598 
L 230.387715 238.337224 
L 231.30172 238.188475 
L 232.825061 238.114101 
L 234.043735 237.890978 
L 234.348403 238.039727 
L 234.653071 237.816604 
L 234.95774 237.890978 
L 235.262408 237.816604 
L 235.871744 237.890978 
L 236.785749 237.74223 
L 237.090418 237.74223 
L 237.699754 237.519107 
L 238.309091 237.593481 
L 239.527764 237.816604 
L 239.832432 237.816604 
L 240.137101 237.667856 
L 240.746437 237.593481 
L 241.660442 236.998488 
L 242.269779 236.775365 
L 242.574447 236.552242 
L 244.707125 236.552242 
L 245.011794 236.700991 
L 245.316462 236.477868 
L 246.230467 236.403494 
L 246.839803 236.180371 
L 247.144472 236.105997 
L 247.753808 236.477868 
L 248.058477 236.700991 
L 248.972482 236.254746 
L 249.886486 236.32912 
L 250.495823 236.626617 
L 250.800491 236.552242 
L 251.10516 236.32912 
L 252.019165 236.403494 
L 252.628501 236.477868 
L 253.542506 236.552242 
L 253.847174 236.254746 
L 254.456511 236.403494 
L 255.370516 236.105997 
L 255.675184 236.403494 
L 255.979853 236.254746 
L 256.589189 236.254746 
L 256.893857 236.403494 
L 257.198526 236.32912 
L 257.807862 236.403494 
L 258.417199 236.180371 
L 258.721867 236.403494 
L 259.331204 236.477868 
L 259.635872 236.552242 
L 259.940541 236.477868 
L 260.549877 236.849739 
L 260.854545 236.849739 
L 261.159214 236.700991 
L 261.463882 236.775365 
L 262.073219 237.22161 
L 262.377887 237.370359 
L 262.682555 237.072862 
L 262.987224 236.998488 
L 263.291892 237.072862 
L 263.59656 236.998488 
L 263.901229 237.295985 
L 264.510565 237.147236 
L 265.119902 237.22161 
L 266.643243 237.147236 
L 266.947912 236.924114 
L 267.557248 237.22161 
L 268.166585 237.147236 
L 269.385258 236.031623 
L 269.994595 236.105997 
L 270.299263 236.180371 
L 270.603931 236.477868 
L 270.9086 236.254746 
L 271.213268 236.477868 
L 271.517936 236.403494 
L 271.822604 236.626617 
L 272.736609 236.32912 
L 273.041278 236.477868 
L 273.650614 236.477868 
L 273.955283 236.105997 
L 274.259951 236.180371 
L 274.564619 236.403494 
L 274.869287 236.105997 
L 275.173956 236.105997 
L 276.087961 236.552242 
L 276.392629 236.403494 
L 276.697297 236.403494 
L 277.611302 236.849739 
L 277.915971 236.700991 
L 278.220639 236.849739 
L 278.829975 236.626617 
L 280.657985 236.552242 
L 280.962654 236.477868 
L 281.267322 236.626617 
L 281.57199 236.552242 
L 282.485995 236.775365 
L 282.790663 236.626617 
L 283.704668 236.775365 
L 285.22801 236.700991 
L 285.837346 236.626617 
L 286.446683 236.552242 
L 286.751351 236.477868 
L 287.05602 236.626617 
L 289.493366 236.626617 
L 289.798034 236.477868 
L 290.102703 236.775365 
L 290.407371 236.849739 
L 291.016708 236.775365 
L 291.321376 236.849739 
L 292.540049 236.626617 
L 292.844717 236.700991 
L 293.758722 236.552242 
L 294.977396 236.626617 
L 295.586732 236.849739 
L 295.8914 236.700991 
L 296.500737 236.775365 
L 297.71941 236.849739 
L 298.024079 236.924114 
L 298.328747 236.775365 
L 299.242752 236.924114 
L 300.156757 236.775365 
L 301.680098 236.849739 
L 302.289435 236.998488 
L 302.594103 236.849739 
L 303.20344 236.998488 
L 303.508108 236.924114 
L 304.117445 236.998488 
L 304.422113 236.998488 
L 304.726781 236.849739 
L 305.03145 236.849739 
L 305.336118 237.072862 
L 306.250123 236.998488 
L 306.859459 236.849739 
L 307.164128 236.924114 
L 307.468796 236.849739 
L 308.382801 236.998488 
L 308.992138 236.924114 
L 309.296806 236.849739 
L 310.210811 236.998488 
L 318.741523 237.072862 
L 319.046192 237.22161 
L 319.655528 236.998488 
L 321.17887 237.072862 
L 321.788206 237.147236 
L 373.581818 237.072862 
L 373.581818 237.072862 
" style="fill:none;stroke:#0000ff;stroke-linecap:square;stroke-width:1.5;"/>
   </g>
   <g id="patch_8">
    <path d="M 54 252 
L 54 34.56 
" style="fill:none;stroke:#000000;stroke-linecap:square;stroke-linejoin:miter;stroke-width:0.8;"/>
   </g>
   <g id="patch_9">
    <path d="M 388.8 252 
L 388.8 34.56 
" style="fill:none;stroke:#000000;stroke-linecap:square;stroke-linejoin:miter;stroke-width:0.8;"/>
   </g>
   <g id="patch_10">
    <path d="M 54 252 
L 388.8 252 
" style="fill:none;stroke:#000000;stroke-linecap:square;stroke-linejoin:miter;stroke-width:0.8;"/>
   </g>
   <g id="patch_11">
    <path d="M 54 34.56 
L 388.8 34.56 
" style="fill:none;stroke:#000000;stroke-linecap:square;stroke-linejoin:miter;stroke-width:0.8;"/>
   </g>
   <g id="legend_2">
    <g id="patch_12">
     <path d="M 262.764063 71.91625 
L 381.8 71.91625 
Q 383.8 71.91625 383.8 69.91625 
L 383.8 41.56 
Q 383.8 39.56 381.8 39.56 
L 262.764063 39.56 
Q 260.764063 39.56 260.764063 41.56 
L 260.764063 69.91625 
Q 260.764063 71.91625 262.764063 71.91625 
z
" style="fill:#ffffff;opacity:0.8;stroke:#cccccc;stroke-linejoin:miter;"/>
    </g>
    <g id="line2d_27">
     <path d="M 264.764063 47.658437 
L 284.764063 47.658437 
" style="fill:none;stroke:#bf00bf;stroke-linecap:square;stroke-width:1.5;"/>
    </g>
    <g id="line2d_28"/>
    <g id="text_25">
     <!-- training accuracy -->
     <g transform="translate(292.764063 51.158437)scale(0.1 -0.1)">
      <use xlink:href="#DejaVuSans-74"/>
      <use x="39.208984" xlink:href="#DejaVuSans-72"/>
      <use x="80.322266" xlink:href="#DejaVuSans-61"/>
      <use x="141.601562" xlink:href="#DejaVuSans-69"/>
      <use x="169.384766" xlink:href="#DejaVuSans-6e"/>
      <use x="232.763672" xlink:href="#DejaVuSans-69"/>
      <use x="260.546875" xlink:href="#DejaVuSans-6e"/>
      <use x="323.925781" xlink:href="#DejaVuSans-67"/>
      <use x="387.402344" xlink:href="#DejaVuSans-20"/>
      <use x="419.189453" xlink:href="#DejaVuSans-61"/>
      <use x="480.46875" xlink:href="#DejaVuSans-63"/>
      <use x="535.449219" xlink:href="#DejaVuSans-63"/>
      <use x="590.429688" xlink:href="#DejaVuSans-75"/>
      <use x="653.808594" xlink:href="#DejaVuSans-72"/>
      <use x="694.921875" xlink:href="#DejaVuSans-61"/>
      <use x="756.201172" xlink:href="#DejaVuSans-63"/>
      <use x="811.181641" xlink:href="#DejaVuSans-79"/>
     </g>
    </g>
    <g id="line2d_29">
     <path d="M 264.764063 62.336562 
L 284.764063 62.336562 
" style="fill:none;stroke:#0000ff;stroke-linecap:square;stroke-width:1.5;"/>
    </g>
    <g id="line2d_30"/>
    <g id="text_26">
     <!-- test accuracy -->
     <g transform="translate(292.764063 65.836562)scale(0.1 -0.1)">
      <use xlink:href="#DejaVuSans-74"/>
      <use x="39.208984" xlink:href="#DejaVuSans-65"/>
      <use x="100.732422" xlink:href="#DejaVuSans-73"/>
      <use x="152.832031" xlink:href="#DejaVuSans-74"/>
      <use x="192.041016" xlink:href="#DejaVuSans-20"/>
      <use x="223.828125" xlink:href="#DejaVuSans-61"/>
      <use x="285.107422" xlink:href="#DejaVuSans-63"/>
      <use x="340.087891" xlink:href="#DejaVuSans-63"/>
      <use x="395.068359" xlink:href="#DejaVuSans-75"/>
      <use x="458.447266" xlink:href="#DejaVuSans-72"/>
      <use x="499.560547" xlink:href="#DejaVuSans-61"/>
      <use x="560.839844" xlink:href="#DejaVuSans-63"/>
      <use x="615.820312" xlink:href="#DejaVuSans-79"/>
     </g>
    </g>
   </g>
  </g>
 </g>
 <defs>
  <clipPath id="p13aadda519">
   <rect height="217.44" width="334.8" x="54" y="34.56"/>
  </clipPath>
 </defs>
</svg>
